PathFileType	4	(X/Y/Z)	50_2_91_p0_0-370_filt_butterworth.trc
DataRate	CameraRate	NumFrames	NumMarkers	Units	OrigDataRate	OrigDataStartFrame	OrigNumFrames
42.0	42.0	6	27	m	42.0	92	370
Frame#	Time	RHip			RKnee			RAnkle			RBigToe			RSmallToe			RHeel			LHip			LKnee			LAnkle			LBigToe			LSmallToe			LHeel			Neck			Head			Nose			RShoulder			RElbow			RWrist			RThumb			RIndex			RPinky			LShoulder			LElbow			LWrist			LThumb			LIndex			LPinky			
		X1	Y1	Z1	X2	Y2	Z2	X3	Y3	Z3	X4	Y4	Z4	X5	Y5	Z5	X6	Y6	Z6	X7	Y7	Z7	X8	Y8	Z8	X9	Y9	Z9	X10	Y10	Z10	X11	Y11	Z11	X12	Y12	Z12	X13	Y13	Z13	X14	Y14	Z14	X15	Y15	Z15	X16	Y16	Z16	X17	Y17	Z17	X18	Y18	Z18	X19	Y19	Z19	X20	Y20	Z20	X21	Y21	Z21	X22	Y22	Z22	X23	Y23	Z23	X24	Y24	Z24	X25	Y25	Z25	X26	Y26	Z26	X27	Y27	Z27	
92	2.1904761904761907	0.3781889277724304	0.7463648490950501	0.5059817305916031	0.33054958303876963	0.8353276688103717	0.9253139787215898	0.32021920173061763	0.9880161208909528	1.349527585049445	0.2542093642269866	0.8435863210274501	1.4118517046243773	0.3263369161144307	0.8223130319877241	1.408243276782381	0.3004188573213436	1.054486573046122	1.3961626616916236	0.18596894166386568	0.7815395773476189	0.5208967417035154	0.16103759699148998	0.8414887942827598	0.9244435266778155	0.10874146721419399	1.0106226218555108	1.34634990320807	0.09622971556189167	0.8336565158428906	1.3915782757101327	0.0397461187318786	0.8781751598542217	1.3846031715147549	0.11978718071838985	1.0763534746228454	1.406370158587524	0.17330876392981415	0.5745018887745285	0.10005800222196931	0.07526551089019533	0.351263960151627	-0.09467757913944318	0.10040754319550751	0.3483850294004286	0.06814906752743341	0.326466182319464	0.5404730956200062	0.06642603833627146	0.5795712098299401	0.5387818893205741	0.15197293108513604	0.7883512642018916	0.4815316692140852	0.2568783155507942	0.8691650938461604	0.45386845745304677	0.3245822506656629	0.8843375414309598	0.45553036040761347	0.3236655011810979	0.8711292840016699	0.49514223788475903	0.3232463019900089	0.059763693704248604	0.6502483333497028	0.14112219444609378	-0.09262646410181162	0.7121180023821654	0.33435256315572776	-0.24347787270713311	0.6989348195947752	0.533320166084495	-0.30117798732865536	0.6293415739124466	0.5952414590535602	-0.3456601708466182	0.6704656457700524	0.5930915220301161	-0.3362557915461736	0.7019257603317255	0.6076129154119584
93	2.2142857142857144	0.37280147151085047	0.737847491249255	0.5060529823343991	0.33095268661138094	0.8357711637653342	0.9249978567623569	0.3188732027035611	0.9837375189207401	1.349776190949224	0.254261568302322	0.8436824389731565	1.4117822285664077	0.32641161226558235	0.822286707862482	1.4066745859261003	0.30147679712797737	1.0545704769826405	1.3968497600231622	0.18378639729462382	0.7793958947310485	0.5207787014191403	0.15808922031897665	0.842988853134302	0.9265215226465371	0.10873007338528602	1.012469300829778	1.348235598006745	0.09261981180370639	0.8347166798607509	1.3899919362643698	0.03970045005712943	0.8782797043093655	1.3848163731355563	0.11961825259822967	1.0763028917326247	1.4063463210176321	0.1711495376958713	0.5783806741586109	0.09896262053128094	0.07640262347680296	0.35916318707695033	-0.10051638954679305	0.09607265015238223	0.35015474007543523	0.06095698416617187	0.32623723885799355	0.5404126094652845	0.06622980834178852	0.5775990410931137	0.5232892493978296	0.1586342852032506	0.7816476739616266	0.4884897550364103	0.28558500863421293	0.8486411333440259	0.47401918199248155	0.36437034630626297	0.8740314559926017	0.4722327655621906	0.3634918695821902	0.8578954177683739	0.4983571477593654	0.35947755753588534	0.05935495294712008	0.6629259051296424	0.13988472563898655	-0.07946844198476992	0.7119226804298534	0.3440030810454431	-0.2255494704265366	0.6782412336957259	0.5395926759700549	-0.2754015234253968	0.6185423231111581	0.6192875139002562	-0.31541425047591365	0.6477466890769752	0.6203026357280416	-0.30784917449866134	0.6926087972860963	0.6277017654035912
94	2.238095238095238	0.3670717602701149	0.728625279149009	0.5059200805141804	0.3301394489999432	0.8365876773769982	0.9247652333988602	0.31709822615551303	0.977936592757955	1.3498837419262142	0.25430123124021564	0.8436054397889748	1.4117248729676115	0.326576434742058	0.82293643464048	1.406789191162348	0.30231446006236684	1.056264070068738	1.399792822980289	0.18104819685118106	0.7786971280670385	0.5207448451608336	0.15657382065963	0.8428728171285117	0.9271241773121351	0.10914589756092256	1.014205867634588	1.3509462405243677	0.0898262700164019	0.8308858626112305	1.3872581076999926	0.03968646066444508	0.8780414830533525	1.3848412704972883	0.11942620319944136	1.0766344852856566	1.4068973729809948	0.17190851693703613	0.5828440234214723	0.09608580120720228	0.07699509298486448	0.35965601615348386	-0.10455790506717354	0.09212604056309129	0.3589204410879383	0.0532095883061216	0.32611290490818756	0.5405184493914658	0.06629772484737899	0.5751122056399001	0.5156798012180049	0.1631250518074726	0.7700461217911239	0.5013946159975254	0.3086715105328389	0.8249330071366056	0.4804464514714152	0.39816695654209333	0.8538393611122485	0.47361027578448334	0.39560334852444984	0.8432114929191022	0.49984364958649585	0.3882954682639882	0.05896681301213531	0.6701610748981162	0.13833782751697812	-0.06688383126085296	0.7050844646885918	0.35067593273057857	-0.20611748145501108	0.6497454280331973	0.5412941541692072	-0.24499019753319856	0.6168485918262329	0.6270970797355632	-0.2874972568896633	0.6179051975173825	0.6292941645376452	-0.2840675330635868	0.6860511932447577	0.6342475057430838
95	2.261904761904762	0.36346488407433514	0.7218138845268427	0.5053623472689903	0.32750095509199356	0.8376085685263709	0.9244579936905196	0.31606882151835514	0.974428663660474	1.348772166621405	0.25426398538349015	0.8435599970910592	1.4117785985136853	0.32643798313800637	0.8228264647961072	1.4072580067894545	0.3022790744678209	1.0589535882727699	1.4018195799814808	0.1779189753782225	0.7829176025837778	0.5210032084718915	0.1543480249655433	0.8379852403132606	0.924934611470456	0.10974091875870244	1.0151432988394395	1.3525225094773536	0.08924111118222272	0.8267784827016827	1.3844594865804214	0.039680553818482914	0.8777978171644997	1.3847658018873858	0.11954235034250435	1.0773390342058873	1.4070455058545623	0.17290529672897553	0.5898834754633543	0.09015898381930339	0.07677698616984888	0.35903508832593295	-0.1093137296580982	0.08965432654366175	0.3642564225607958	0.04631736000330431	0.32617022543355095	0.5407352531425452	0.06704192465592973	0.5736549192715552	0.5178401553329051	0.16682775328068822	0.7571613268354236	0.510296264401349	0.33016056372258074	0.7988619336967959	0.4795371746365875	0.43122672825962305	0.8228281156971122	0.4699347847167199	0.42709560269344166	0.8255928006190136	0.5031319436985234	0.41510439980903824	0.058967441359454635	0.6703705809094894	0.13590512323062337	-0.05838657841065321	0.7001170352568833	0.3517901083305497	-0.191126568886274	0.6305074160545803	0.5416139101059472	-0.21706025505322388	0.6181549993387738	0.6258902997837277	-0.26363876603779335	0.5883783024409435	0.6271494268636667	-0.2663650423966071	0.6879058011263877	0.6343341410861194
96	2.2857142857142856	0.3614836201020903	0.718963105324209	0.5046641372744674	0.32449035685726474	0.8383164877099506	0.9240723683070813	0.3147837584319327	0.9703599728394086	1.346670744162218	0.25425107130290164	0.8436935283499905	1.411565661873562	0.32539270976462326	0.8183997381214448	1.4052211501056033	0.3020191217333023	1.060520433447915	1.4003254029879593	0.1755349427967416	0.7906462212580565	0.5208770666100261	0.15052986552064151	0.8299479426233378	0.9212891413768995	0.10992218722878544	1.015366981661673	1.3525495935701104	0.0895693774938077	0.8251674580897328	1.3822287820130343	0.03973461587255329	0.8781531383808368	1.3847659310010774	0.1196272627272664	1.0781755775215582	1.4068855712072217	0.17301602204925642	0.5934121326218831	0.08235372032100644	0.07752342914195956	0.3615037520446447	-0.11668999952931698	0.08961196608010819	0.3611189521941989	0.04095258674050559	0.3261511846672236	0.5409316554469918	0.06840105654124609	0.5738445328991464	0.5195234136315185	0.17055349541161305	0.7432269400248768	0.5039552209120192	0.35762648615352566	0.7662166990360092	0.47488505746417575	0.46589542023391706	0.7883809236869882	0.46973048997129113	0.46249378043972633	0.8010140260645209	0.5051923310415037	0.4479955830867173	0.05884358257253733	0.6681033776663642	0.13133515064715595	-0.05264154062124046	0.6993976093399765	0.34666884825101835	-0.1811399746691009	0.6272561451191448	0.5408960297911176	-0.19948421371953728	0.6120900388863284	0.6251006999454511	-0.24073655571283897	0.567855873951559	0.6253194452285074	-0.24686488129551193	0.6871433260613142	0.6335014854727364
97	2.3095238095238093	0.35652493617719	0.718986104138535	0.5046257100335283	0.3215514548541998	0.8376291813529174	0.9233090693353487	0.31277722549351383	0.963738222852561	1.3453109314262073	0.2549226320080973	0.8441267623275679	1.4103082583912399	0.3237520247519283	0.81115298009338	1.4018099685107992	0.30226813176321266	1.0617464014957958	1.3989805364635268	0.17378064091833012	0.7958402003088864	0.5195825557836131	0.14679212694888993	0.8253878672595354	0.9197304510127287	0.10828148610398536	1.0150282274536297	1.3521999288411666	0.08860082391191033	0.8216954630804626	1.3810291203856737	0.03985909938137151	0.8790035978240041	1.3848605962973777	0.11856471445081336	1.0783567116623012	1.4067966933008478	0.17425728424493733	0.5933712143492744	0.07526646043841415	0.08046208474951153	0.36072210491613865	-0.12355010740077374	0.09223008018856824	0.3564856371981492	0.03723560654782004	0.32605230956641423	0.5411812032997758	0.06956539282130725	0.5749549841695829	0.5191158121844353	0.17726446612326777	0.7261573786307842	0.4838306395819034	0.38461256959342277	0.7282123568162343	0.46313172751083975	0.49211245174427	0.7513048173492176	0.46557494605209276	0.49152830132251213	0.770653909540829	0.49860547108384073	0.47955280590747823	0.05866378318072976	0.6670781451922899	0.12556235755246475	-0.04888985992320158	0.6997573516285498	0.33853746213488356	-0.1717101928393458	0.626426528681781	0.539035422813223	-0.18838761812442326	0.5871886461453486	0.6251437386646939	-0.22202330200472442	0.5590153296036089	0.62556956665958	-0.2256628179851028	0.6722438421882124	0.6325399766098945
